<svg xmlns="http://www.w3.org/2000/svg" viewBox="0 0 512 512" width="256" height="256">
<defs>
  <linearGradient id="cream" x1="0" y1="0" x2="1" y2="1">
    <stop offset="0" stop-color="#FFFDF4"/>
    <stop offset=".42" stop-color="#F7EED6"/>
    <stop offset=".72" stop-color="#D7CDB6"/>
    <stop offset="1" stop-color="#FFF8E9"/>
  </linearGradient>
  <linearGradient id="orange" x1="0" y1="0" x2="1" y2="1">
    <stop offset="0" stop-color="#FFB03A"/>
    <stop offset=".24" stop-color="#FF7A00"/>
    <stop offset=".72" stop-color="#F34B00"/>
    <stop offset="1" stop-color="#C83200"/>
  </linearGradient>
  <linearGradient id="blackMetal" x1="0" y1="0" x2="1" y2="1">
    <stop offset="0" stop-color="#272727"/>
    <stop offset=".35" stop-color="#050505"/>
    <stop offset=".72" stop-color="#171717"/>
    <stop offset="1" stop-color="#000"/>
  </linearGradient>
  <filter id="drop" x="-40%" y="-40%" width="180%" height="180%">
    <feDropShadow dx="8" dy="10" stdDeviation="8" flood-color="#000" flood-opacity=".48"/>
  </filter>
</defs>
<style>
  .float{animation:float 2.8s ease-in-out infinite; transform-origin:256px 256px}
  .wobble{animation:wobble 1.7s ease-in-out infinite; transform-origin:256px 256px}
  .blink{animation:blink 3.2s infinite; transform-origin:center}
  .blink2{animation:blink 3.8s infinite .55s; transform-origin:center}
  .bounce{animation:bounce 1.45s cubic-bezier(.35,.05,.35,1) infinite; transform-origin:256px 335px}
  .shadow{animation:shadow 1.45s cubic-bezier(.35,.05,.35,1) infinite; transform-origin:256px 426px}
  .spin{animation:spin 4.4s linear infinite; transform-origin:256px 256px}
  .orbit{animation:spin 7s linear infinite; transform-origin:256px 256px}
  .spark{animation:spark 1.6s ease-in-out infinite; transform-origin:center}
  .spark2{animation:spark 2s ease-in-out infinite .45s; transform-origin:center}
  .flame{animation:flame .46s ease-in-out infinite alternate; transform-origin:256px 360px}
  .dance{animation:dance 1.4s ease-in-out infinite; transform-origin:256px 280px}
  .armL{animation:armL 1s ease-in-out infinite; transform-origin:185px 245px}
  .armR{animation:armR 1s ease-in-out infinite; transform-origin:330px 245px}
  .legL{animation:legL 1s ease-in-out infinite alternate; transform-origin:218px 360px}
  .legR{animation:legR 1s ease-in-out infinite alternate; transform-origin:300px 360px}
  .pulse{animation:pulse 1.5s ease-in-out infinite; transform-origin:center}
  @keyframes float{0%,100%{transform:translateY(0)}50%{transform:translateY(-14px)}}
  @keyframes wobble{0%,100%{transform:rotate(-4deg)}50%{transform:rotate(4deg) translateY(-6px)}}
  @keyframes blink{0%,7%,100%{transform:scaleY(1)}4%{transform:scaleY(.08)}}
  @keyframes bounce{0%,100%{transform:translateY(0) scaleY(1)}38%{transform:translateY(-68px)}52%{transform:translateY(0) scaleY(.92) scaleX(1.05)}}
  @keyframes shadow{0%,100%{transform:scaleX(1);opacity:.36}38%{transform:scaleX(.62);opacity:.16}52%{transform:scaleX(1.18);opacity:.4}}
  @keyframes spin{from{transform:rotate(0)}to{transform:rotate(360deg)}}
  @keyframes spark{0%,100%{transform:scale(1);opacity:1}50%{transform:scale(1.3);opacity:.6}}
  @keyframes flame{from{transform:scaleY(.88)}to{transform:scaleY(1.18)}}
  @keyframes dance{0%,100%{transform:rotate(-4deg) translateY(0)}50%{transform:rotate(5deg) translateY(-8px)}}
  @keyframes armL{0%,100%{transform:rotate(14deg)}50%{transform:rotate(-18deg)}}
  @keyframes armR{0%,100%{transform:rotate(-14deg)}50%{transform:rotate(18deg)}}
  @keyframes legL{from{transform:rotate(10deg)}to{transform:rotate(-18deg)}}
  @keyframes legR{from{transform:rotate(-10deg)}to{transform:rotate(18deg)}}
  @keyframes pulse{0%,100%{transform:scale(1)}50%{transform:scale(1.08)}}
</style>

<ellipse class="shadow" cx="256" cy="427" rx="102" ry="22" fill="#000"/>
<g filter="url(#drop)">
  <g class="spark" transform="translate(395 124)">
      <path d="M0 -26 L8 -8 L26 0 L8 8 L0 26 L-8 8 L-26 0 L-8 -8 Z" fill="url(#orange)" stroke="#050505" stroke-width="8" stroke-linejoin="round"/>
      <path d="M0 -14 L4 -4 L14 0 L4 4 L0 14 L-4 4 L-14 0 L-4 -4 Z" fill="#FFF8E8"/>
    </g>
  <g class="spark2" transform="translate(114 389)">
      <path d="M0 -18 L8 -8 L18 0 L8 8 L0 18 L-8 8 L-18 0 L-8 -8 Z" fill="url(#orange)" stroke="#050505" stroke-width="8" stroke-linejoin="round"/>
      <path d="M0 -9 L4 -4 L9 0 L4 4 L0 9 L-4 4 L-9 0 L-4 -4 Z" fill="#FFF8E8"/>
    </g>
  <g class="bounce">
    <circle cx="256" cy="274" r="116" fill="url(#cream)" stroke="#050505" stroke-width="15"/>
    <path d="M256 176l37 27-14 44h-46l-14-44zM160 241l38-27 35 26-13 44h-47l-36-25zM352 241l-38-27-35 26 13 44h47l36-25zM196 329h47l13 44-38 27-35-26zM316 329h-47l-13 44 38 27 35-26z"
      fill="url(#orange)" stroke="#050505" stroke-width="6"/>
    <path d="M181 194c47-18 103-18 150 0M144 293c0 45 9 76 27 101M368 293c0 45-9 76-27 101"
      fill="none" stroke="#050505" stroke-width="9" stroke-linecap="round"/>
    <path d="M171 207c32-16 64-22 96-21" fill="none" stroke="#FFF" stroke-width="7" stroke-linecap="round" opacity=".7"/>
  </g>
</g></svg>